<?xml version="1.0" encoding="UTF-8"?>
<svg width="800px" height="600px" viewBox="0 0 800 600" version="1.1" xmlns="http://www.w3.org/2000/svg" xmlns:xlink="http://www.w3.org/1999/xlink">
    <title>Palm Leaves Pattern</title>
    <g stroke="none" stroke-width="1" fill="none" fill-rule="evenodd">
        <g fill="#007BFF" fill-rule="nonzero">
            <!-- Leaf 1 -->
            <path d="M100,100 C150,50 200,75 220,120 C240,165 220,200 180,210 C140,220 120,190 110,160 C100,130 80,120 100,100 Z"></path>
            
            <!-- Leaf 2 -->
            <path d="M300,50 C350,30 400,70 410,110 C420,150 400,180 360,185 C320,190 290,170 280,140 C270,110 250,70 300,50 Z"></path>
            
            <!-- Leaf 3 -->
            <path d="M500,80 C550,50 580,90 590,130 C600,170 580,200 540,210 C500,220 480,190 470,160 C460,130 450,110 500,80 Z"></path>
            
            <!-- Leaf 4 -->
            <path d="M700,120 C750,90 780,130 790,170 C800,210 780,240 740,250 C700,260 670,230 660,200 C650,170 650,150 700,120 Z"></path>
            
            <!-- Leaf 5 -->
            <path d="M150,300 C200,270 250,310 260,350 C270,390 250,420 210,430 C170,440 140,410 130,380 C120,350 100,330 150,300 Z"></path>
            
            <!-- Leaf 6 -->
            <path d="M350,250 C400,220 430,260 440,300 C450,340 430,370 390,380 C350,390 320,360 310,330 C300,300 300,280 350,250 Z"></path>
            
            <!-- Leaf 7 -->
            <path d="M550,280 C600,250 630,290 640,330 C650,370 630,400 590,410 C550,420 520,390 510,360 C500,330 500,310 550,280 Z"></path>
            
            <!-- Leaf 8 -->
            <path d="M50,500 C100,470 130,510 140,550 C150,590 130,620 90,630 C50,640 20,610 10,580 C0,550 0,530 50,500 Z"></path>
            
            <!-- Leaf 9 -->
            <path d="M250,450 C300,420 330,460 340,500 C350,540 330,570 290,580 C250,590 220,560 210,530 C200,500 200,480 250,450 Z"></path>
            
            <!-- Leaf 10 -->
            <path d="M450,500 C500,470 530,510 540,550 C550,590 530,620 490,630 C450,640 420,610 410,580 C400,550 400,530 450,500 Z"></path>
            
            <!-- Leaf 11 -->
            <path d="M650,450 C700,420 730,460 740,500 C750,540 730,570 690,580 C650,590 620,560 610,530 C600,500 600,480 650,450 Z"></path>
        </g>
    </g>
</svg>