<?xml version="1.0" encoding="UTF-8"?>
<svg xmlns="http://www.w3.org/2000/svg" width="800" height="400" viewBox="0 0 800 400">
  <!-- Fond océan -->
  <rect width="800" height="400" fill="#0099cc" />
  
  <!-- Dégradé océan -->
  <defs>
    <linearGradient id="oceanGradient" x1="0%" y1="0%" x2="100%" y2="100%">
      <stop offset="0%" style="stop-color:#0099cc;stop-opacity:1" />
      <stop offset="100%" style="stop-color:#006699;stop-opacity:1" />
    </linearGradient>
  </defs>
  <rect width="800" height="400" fill="url(#oceanGradient)" />
  
  <!-- Palmier gauche -->
  <g transform="translate(50,300) scale(0.8)">
    <!-- Tronc -->
    <path d="M0,0 C10,-50 20,-100 10,-150" stroke="#754c24" stroke-width="10" fill="none" />
    
    <!-- Feuilles -->
    <path d="M10,-150 C-30,-160 -60,-140 -80,-110" stroke="#339933" stroke-width="5" fill="#33cc33" />
    <path d="M10,-150 C-20,-180 -10,-200 20,-210" stroke="#339933" stroke-width="5" fill="#33cc33" />
    <path d="M10,-150 C30,-170 60,-160 80,-130" stroke="#339933" stroke-width="5" fill="#33cc33" />
    <path d="M10,-150 C40,-140 70,-120 75,-90" stroke="#339933" stroke-width="5" fill="#33cc33" />
    <path d="M10,-150 C15,-180 40,-200 70,-200" stroke="#339933" stroke-width="5" fill="#33cc33" />
  </g>
  
  <!-- Palmier droit -->
  <g transform="translate(750,320) scale(-0.7,0.7)">
    <!-- Tronc -->
    <path d="M0,0 C10,-50 20,-100 10,-150" stroke="#754c24" stroke-width="10" fill="none" />
    
    <!-- Feuilles -->
    <path d="M10,-150 C-30,-160 -60,-140 -80,-110" stroke="#339933" stroke-width="5" fill="#33cc33" />
    <path d="M10,-150 C-20,-180 -10,-200 20,-210" stroke="#339933" stroke-width="5" fill="#33cc33" />
    <path d="M10,-150 C30,-170 60,-160 80,-130" stroke="#339933" stroke-width="5" fill="#33cc33" />
    <path d="M10,-150 C40,-140 70,-120 75,-90" stroke="#339933" stroke-width="5" fill="#33cc33" />
    <path d="M10,-150 C15,-180 40,-200 70,-200" stroke="#339933" stroke-width="5" fill="#33cc33" />
  </g>
  
  <!-- Nuages -->
  <g opacity="0.7">
    <ellipse cx="150" cy="80" rx="60" ry="20" fill="white" />
    <ellipse cx="650" cy="50" rx="70" ry="25" fill="white" />
    <ellipse cx="400" cy="100" rx="50" ry="15" fill="white" />
  </g>
  
  <!-- Reflets de soleil sur l'eau -->
  <g opacity="0.3">
    <circle cx="200" cy="200" r="5" fill="white" />
    <circle cx="300" cy="250" r="3" fill="white" />
    <circle cx="500" cy="180" r="4" fill="white" />
    <circle cx="650" cy="220" r="6" fill="white" />
    <circle cx="100" cy="300" r="4" fill="white" />
    <circle cx="400" cy="320" r="5" fill="white" />
    <circle cx="700" cy="280" r="3" fill="white" />
  </g>
</svg>